<svg width="37" height="37" viewBox="0 0 37 37" fill="none" xmlns="http://www.w3.org/2000/svg">
<path d="M18.5 0C8.288 0 0 8.288 0 18.5C0 28.712 8.288 37 18.5 37C28.712 37 37 28.712 37 18.5C37 8.288 28.712 0 18.5 0ZM17.6269 1.5338C17.6373 1.53328 17.648 1.53431 17.6584 1.5338L17.737 2.78837C16.67 2.83925 15.6314 2.99485 14.6301 3.24851L14.9408 4.47162C12.3124 5.13737 9.97136 6.52151 8.13701 8.40445L7.23639 7.52349C6.5039 8.27496 5.84903 9.10042 5.27785 9.98544L4.22385 9.28933C7.10251 4.8384 12.0059 1.81904 17.6269 1.5338ZM19.3416 1.5338C24.9757 1.80941 29.8922 4.83015 32.7761 9.28933L31.7221 9.98544C31.1522 9.10265 30.498 8.27732 29.7675 7.52743L28.8669 8.40445C27.0323 6.5205 24.6885 5.1376 22.0592 4.47162L22.3699 3.24851C21.3686 2.99485 20.33 2.83925 19.263 2.78837L19.3416 1.5338ZM18.5 7.07908C19.0349 7.07786 19.5697 7.11055 20.0102 7.17347L19.322 12.8997C20.7686 13.1106 22.037 13.8678 22.9126 14.9565L27.5062 11.5114C28.0641 12.2065 28.6967 13.2969 29.0282 14.1228L23.7503 16.3802C24.0156 17.0356 24.1633 17.7498 24.1633 18.5C24.1633 19.2227 24.0289 19.9133 23.7818 20.549L29.0164 22.7868C28.6934 23.6175 28.0674 24.706 27.518 25.406L22.9559 21.9923C22.0814 23.106 20.7985 23.8837 19.3338 24.1003L20.0102 29.7321C19.1293 29.8678 17.8707 29.8659 16.9898 29.74L17.6662 24.1003C16.2004 23.8835 14.9186 23.1034 14.0441 21.9884L9.49384 25.4021C8.93587 24.707 8.30332 23.6166 7.97183 22.7907L13.2182 20.5451C12.9719 19.9103 12.8367 19.2214 12.8367 18.5C12.8367 17.7485 12.9835 17.0326 13.2497 16.3763L7.98363 14.1267C8.30662 13.2959 8.93257 12.2074 9.48204 11.5074L14.0874 14.9565C14.963 13.8678 16.2314 13.1106 17.678 12.8997L16.9898 7.18134C17.4303 7.1135 17.9651 7.08031 18.5 7.07908ZM3.38223 10.7445L4.51488 11.3029C4.03717 12.2291 3.64658 13.2069 3.35863 14.229L4.56994 14.5711C4.21779 15.8208 4.02721 17.1382 4.02721 18.5C4.02721 19.8631 4.21713 21.1821 4.56994 22.4328L3.35863 22.775C3.64638 23.7954 4.03775 24.7724 4.51488 25.6971L3.38223 26.2555C2.18601 23.93 1.5102 21.2936 1.5102 18.5C1.5102 15.7065 2.18601 13.07 3.38223 10.7445ZM33.6178 10.7445C34.814 13.07 35.4898 15.7065 35.4898 18.5C35.4898 21.2936 34.814 23.93 33.6178 26.2555L32.4851 25.6971C32.9625 24.7721 33.3535 23.7958 33.6414 22.775L32.4301 22.4328C32.7829 21.1821 32.9728 19.8631 32.9728 18.5C32.9728 17.1382 32.7822 15.8208 32.4301 14.5711L33.6414 14.229C33.3535 13.2072 32.9626 12.2288 32.4851 11.3029L33.6178 10.7445ZM5.27785 27.0146C5.84925 27.8996 6.50387 28.725 7.23639 29.4765L8.13701 28.5956C9.97136 30.4785 12.3124 31.8626 14.9408 32.5284L14.6301 33.7515C15.6314 34.0051 16.67 34.1608 17.737 34.2116L17.6584 35.4662C12.0243 35.1906 7.10784 32.1699 4.22385 27.7107L5.27785 27.0146ZM31.7261 27.0146L32.7761 27.7107C29.8922 32.1699 24.9757 35.1906 19.3416 35.4662L19.263 34.2116C20.33 34.1608 21.3686 34.0051 22.3699 33.7515L22.0592 32.5284C24.6885 31.8624 27.0323 30.4795 28.8669 28.5956L29.7675 29.4726C30.4989 28.7217 31.1555 27.8986 31.7261 27.0146Z" fill="black"/>
</svg>
